<?xml version="1.0" encoding="UTF-8"?>
<svg version="1.1" xmlns="http://www.w3.org/2000/svg" width="1280" height="1280">
<path d="M0 0 C422.4 0 844.8 0 1280 0 C1280 422.4 1280 844.8 1280 1280 C857.6 1280 435.2 1280 0 1280 C0 857.6 0 435.2 0 0 Z " fill="#FEFEFE" transform="translate(0,0)"/>
<path d="M0 0 C0 0.66 0 1.32 0 2 C-1.14584517 3.14584517 -2.29433368 4.28912393 -3.453125 5.421875 C-16.58862697 18.82274065 -23.47892212 37.84690373 -27.25 55.875 C-27.41338867 56.64038086 -27.57677734 57.40576172 -27.74511719 58.19433594 C-30.21168949 70.90586098 -30.14349993 84.08792632 -30.26036072 96.9988308 C-30.28193948 99.36869 -30.30889425 101.7384407 -30.33703613 104.10823059 C-30.405796 109.98422513 -30.46597988 115.86030056 -30.52606201 121.73638916 C-30.57746448 126.73369121 -30.6323971 131.73093108 -30.69187927 136.72814369 C-30.71797724 139.03710059 -30.73906214 141.34606559 -30.7598877 143.65507507 C-30.88735215 155.56861004 -31.39488011 167.34582291 -33.6875 179.0625 C-33.86120117 179.95316162 -34.03490234 180.84382324 -34.21386719 181.76147461 C-38.79782109 204.29395168 -47.15593855 225.7648745 -58 246 C-58.31936523 246.60005859 -58.63873047 247.20011719 -58.96777344 247.81835938 C-90.1781017 305.92977261 -144.27554586 341.33847632 -206 360 C-221.39640059 364.56212106 -236.9402007 368.51381669 -252.52929688 372.35400391 C-305.12794976 384.42873139 -305.12794976 384.42873139 -352 410 C-352.66 409.67 -353.32 409.34 -354 409 C-344.72814934 386.66025494 -335.00906536 364.54791714 -324.00830078 342.99755859 C-322.90185221 340.80555806 -321.82248996 338.60143907 -320.74609375 336.39453125 C-314.33511425 323.29968127 -307.2951043 310.62087837 -300 298 C-299.55124512 297.21995605 -299.10249023 296.43991211 -298.64013672 295.63623047 C-283.00212477 268.49384036 -265.67533188 242.14872026 -247 217 C-246.49275391 216.31405762 -245.98550781 215.62811523 -245.46289062 214.92138672 C-236.33389302 202.59029775 -226.9350438 190.48392081 -217.17578125 178.64453125 C-215.70570416 176.85774096 -214.24497028 175.06322861 -212.79296875 173.26171875 C-208.14940884 167.51216209 -203.33066231 161.98284445 -198.328125 156.54296875 C-196.39305738 154.42932946 -194.49791703 152.29340152 -192.625 150.125 C-187.55054158 144.29527335 -182.26274747 138.65906121 -177 133 C-176.40590332 132.35933594 -175.81180664 131.71867188 -175.19970703 131.05859375 C-153.493949 107.66467368 -153.493949 107.66467368 -142.82421875 98.60546875 C-140.79194494 96.81689372 -138.89942105 94.92881247 -137 93 C-133.8501997 89.80738688 -130.58780511 86.82838721 -127.1875 83.90625 C-124.64488601 81.69054352 -122.16889802 79.40901408 -119.6875 77.125 C-115.06604254 72.9026099 -110.30188259 68.9125484 -105.41015625 65.0078125 C-103.13541766 63.11281147 -101.05617601 61.12773666 -99 59 C-109.25287481 65.65431679 -119.12993223 72.79465032 -129 80 C-129.79954102 80.58120605 -130.59908203 81.16241211 -131.42285156 81.76123047 C-140.94090483 88.68258123 -150.31652866 95.72700466 -159.45703125 103.140625 C-162.36111473 105.49576101 -165.30223145 107.79788867 -168.25854492 110.08691406 C-175.79241374 115.92980798 -182.99002209 122.10915218 -190.15625 128.39453125 C-191.93603411 129.94430089 -193.72955062 131.47579449 -195.53125 133 C-203.07569721 139.38376302 -210.35946333 145.9906993 -217.55078125 152.76953125 C-220.30106598 155.35860526 -223.10084089 157.88045053 -225.9375 160.375 C-231.21685748 165.07955306 -236.16458453 170.10979562 -241.11694336 175.15380859 C-245.03604357 179.12434057 -249.05645847 182.86615644 -253.33154297 186.45263672 C-255.23023285 188.09306751 -255.23023285 188.09306751 -257 191 C-257.66 191 -258.32 191 -259 191 C-259.39505737 191.88510254 -259.39505737 191.88510254 -259.7980957 192.78808594 C-261.05201652 195.09572815 -262.35195261 196.56727394 -264.23046875 198.390625 C-264.8649292 199.01340332 -265.49938965 199.63618164 -266.15307617 200.27783203 C-267.16011597 201.25405518 -267.16011597 201.25405518 -268.1875 202.25 C-272.69273345 206.68382256 -277.12776228 211.09148049 -281.20703125 215.92578125 C-283.18259825 218.21124111 -285.23267269 220.41427153 -287.29492188 222.62133789 C-292.36710354 228.05010835 -297.19745337 233.58617839 -301.8515625 239.3828125 C-304.01511772 242.01841613 -306.2638956 244.54423375 -308.5625 247.0625 C-312.93726257 251.87473883 -316.97595648 256.89392017 -321 262 C-321.93760367 263.17023202 -322.87648964 264.33943739 -323.81640625 265.5078125 C-335.25799654 279.73164237 -346.21342199 294.27424038 -357 309 C-364.61077656 293.77844687 -348.01054107 255.26606708 -342.75 239.375 C-338.24183535 225.9111988 -333.08421364 212.83771502 -327 200 C-326.59958496 199.14696289 -326.19916992 198.29392578 -325.78662109 197.41503906 C-314.52925123 173.61270648 -300.35285415 151.60138979 -284 131 C-283.27296875 130.07832031 -282.5459375 129.15664063 -281.796875 128.20703125 C-267.49764026 110.38442392 -251.17097966 92.88537125 -233 79 C-231.67790657 77.94102168 -230.35776398 76.87960545 -229.0390625 75.81640625 C-200.80915853 53.21676486 -168.12557983 34.15257747 -134 22 C-133.15211914 21.69642578 -132.30423828 21.39285156 -131.43066406 21.08007812 C-88.86751885 6.00593695 -45.10172191 -0.75411239 0 0 Z " fill="#579632" transform="translate(1027,589)"/>
<path d="M0 0 C18.12057319 -0.23183491 35.97562811 -0.13525651 54 2 C55.27665527 2.14477783 55.27665527 2.14477783 56.57910156 2.29248047 C78.58779742 4.85525213 99.7720988 9.98022411 120.75 17 C121.50105011 17.25103485 122.25210022 17.5020697 123.02590942 17.76071167 C135.84594258 22.07271772 148.68834438 26.58272812 160.75 32.75 C161.39864014 33.08161133 162.04728027 33.41322266 162.71557617 33.75488281 C164.09705563 34.46353515 165.47684779 35.17548588 166.85498047 35.890625 C169.08566767 37.04430616 171.32559282 38.17862856 173.56640625 39.3125 C212.21021173 59.04857214 247.89118875 86.90318627 276 120 C276.76812012 120.89996704 276.76812012 120.89996704 277.55175781 121.81811523 C286.47662588 132.36868676 294.42540941 143.44912236 302 155 C302.4444043 155.67498535 302.88880859 156.3499707 303.34667969 157.04541016 C315.36116945 175.41806763 325.31567958 194.85924558 334 215 C334.29068359 215.66483398 334.58136719 216.32966797 334.88085938 217.01464844 C345.6606672 241.83482325 352.07933046 268.37442809 356.4375 295 C356.6137793 296.07507813 356.79005859 297.15015625 356.97167969 298.2578125 C357.12411133 299.24523437 357.27654297 300.23265625 357.43359375 301.25 C357.56822021 302.12140625 357.70284668 302.9928125 357.84155273 303.890625 C358 306 358 306 357 308 C352.17146088 301.76135654 347.36709101 295.5087784 342.66430664 289.17456055 C336.48201001 280.85620838 330.04716196 272.77730401 323.46044922 264.77636719 C321.42177578 262.29669686 319.40009769 259.80326187 317.375 257.3125 C312.79146884 251.71875523 308.12626995 246.19653474 303.43701172 240.69140625 C302.00600998 239.00707393 300.58262965 237.3165372 299.16015625 235.625 C292.64977776 227.91621005 285.87685157 220.50021239 278.93359375 213.1796875 C276.8427802 210.97519865 274.77853897 208.75448326 272.7434082 206.49829102 C264.71547391 197.60313921 256.28388243 189.13171223 247.80151367 180.67114258 C245.30336032 178.17838005 242.81063802 175.68027525 240.31835938 173.18164062 C238.70865409 171.57259572 237.09863885 169.96386082 235.48828125 168.35546875 C234.38798332 167.25213448 234.38798332 167.25213448 233.26545715 166.12651062 C229.23129755 162.11039708 225.10939543 158.25853375 220.78918457 154.55107117 C217.84136172 151.99555895 215.02481472 149.30170427 212.1875 146.625 C207.16790697 141.92295796 202.01986603 137.47998072 196.6484375 133.1796875 C193.82174165 130.8532918 191.12941098 128.4182807 188.4375 125.9375 C184.36038747 122.19344737 180.19249531 118.66357847 175.83984375 115.24609375 C173.66791008 113.52826451 171.51821453 111.79286119 169.37890625 110.03515625 C160.79069593 102.98169685 152.06547366 96.1700648 143.12451172 89.56982422 C140.9030736 87.92838006 138.68768036 86.27899329 136.47265625 84.62890625 C128.16318047 78.4543239 119.78685781 72.38405812 111.3125 66.4375 C110.49942383 65.86596191 109.68634766 65.29442383 108.84863281 64.70556641 C103.98948411 61.3150185 99.05894609 58.08468088 94 55 C94.62003906 55.49886719 95.24007812 55.99773438 95.87890625 56.51171875 C107.71582221 66.1087525 119.16476388 76.12416112 130.33959961 86.4823761 C131.59979634 87.63420953 132.87081072 88.77422109 134.14672852 89.90861511 C140.18712749 95.28295142 145.98996559 100.84311505 151.69921875 106.56640625 C152.5785054 107.44473618 153.45779205 108.3230661 154.36372375 109.22801208 C156.20603138 111.06964445 158.04709788 112.91251916 159.88696289 114.7565918 C162.68718845 117.56218785 165.49273172 120.36238656 168.29882812 123.16210938 C170.09927914 124.96322104 171.89942001 126.76464279 173.69921875 128.56640625 C174.52854416 129.39370743 175.35786957 130.22100861 176.21232605 131.07337952 C180.47503578 135.35313998 184.59268451 139.70047186 188.52488708 144.28677368 C190.74055715 146.86009822 193.06049887 149.32771275 195.375 151.8125 C199.6687538 156.46038542 203.7353184 161.24416348 207.703125 166.17578125 C209.72536565 168.66231184 211.7917713 171.10289714 213.88208008 173.53222656 C219.72936311 180.34066392 225.20042969 187.39410685 230.61328125 194.55078125 C232.87114326 197.53220774 235.15962139 200.48531466 237.48046875 203.41796875 C245.0977901 213.0484923 252.24092834 222.88594519 259.05957031 233.09667969 C260.47164823 235.20946662 261.88735715 237.31948691 263.30761719 239.42675781 C299.24916243 292.75611347 330.71348087 348.93447859 354 409 C350.68361325 407.72665953 347.56535399 406.30566961 344.4453125 404.609375 C334.13293183 399.06568031 323.990976 394.0689484 313 390 C311.81277344 389.52304687 310.62554688 389.04609375 309.40234375 388.5546875 C298.16269388 384.07296177 286.57202298 380.97883446 274.90869141 377.80517578 C271.00294274 376.72399741 267.12752511 375.55242415 263.25 374.375 C257.43928957 372.63081402 251.59953471 371.17012985 245.6875 369.8125 C195.21673627 358.08503263 144.93879816 342.43360363 106.375 306.22265625 C104.30036186 304.28109523 102.17828555 302.44755747 100 300.625 C60.67625265 266.16686845 36.21175484 211.37657944 31 160 C30.89606086 157.35142605 30.82669157 154.72613494 30.81054688 152.07788086 C30.80225357 151.33027496 30.79396027 150.58266907 30.78541565 149.81240845 C30.76813758 148.20234622 30.75293851 146.59226057 30.73963928 144.98216057 C30.71837093 142.41916249 30.69136506 139.8562786 30.66296387 137.29335022 C30.60357658 131.84144582 30.551368 126.38948502 30.5 120.9375 C30.44033581 114.63629128 30.37759337 108.33513776 30.30812073 102.03402901 C30.28199129 99.53572051 30.26090585 97.03740494 30.2401123 94.53904724 C30.11172546 81.49977798 29.84185751 68.45820157 27.3125 55.625 C27.13807373 54.73852783 26.96364746 53.85205566 26.78393555 52.9387207 C22.8697444 34.07451742 15.45990342 16.8197796 1.87109375 2.94140625 C0 1 0 1 0 0 Z " fill="#579632" transform="translate(253,584)"/>
<path d="M0 0 C5.89661746 1.65536271 11.03390808 4.51214586 16.375 7.4375 C17.34945068 7.97101074 18.32390137 8.50452148 19.32788086 9.05419922 C27.95034865 13.84799958 36.07085245 19.13932573 44 25 C44.57008789 25.41991211 45.14017578 25.83982422 45.72753906 26.27246094 C61.52461131 37.9899187 77.82757836 50.93715772 90.41796875 66.109375 C92.26442332 68.31600219 94.22570012 70.3953337 96.1875 72.5 C102.29551881 79.28322497 107.67669847 86.5952318 113 94 C113.42394043 94.58845703 113.84788086 95.17691406 114.28466797 95.78320312 C158.35702255 157.67279739 174.31590113 235.73114576 162.125 310.3125 C159.63849217 324.73447398 156.26441875 338.53357814 151.875 352.5 C151.52598633 353.61818115 151.17697266 354.7363623 150.81738281 355.88842773 C150.48319336 356.92555908 150.14900391 357.96269043 149.8046875 359.03125 C149.50546387 359.96517578 149.20624023 360.89910156 148.89794922 361.86132812 C148 364 148 364 146 365 C145.85304688 363.84371094 145.70609375 362.68742187 145.5546875 361.49609375 C140.58453695 323.88258045 132.12012509 286.15412439 120.88647461 249.91235352 C120.20134626 247.66148707 119.53456789 245.40828101 118.88110352 243.14819336 C116.01460921 233.24042777 112.91846571 223.44022987 109.5625 213.6875 C109.30910858 212.94965271 109.05571716 212.21180542 108.79464722 211.45159912 C99.24163027 183.72392965 88.45735797 156.55335748 76 130 C75.72069641 129.4046344 75.44139282 128.8092688 75.15362549 128.19586182 C66.55447036 109.89484431 57.42156686 91.88885926 48 74 C48.27150879 74.648479 48.54301758 75.29695801 48.82275391 75.96508789 C50.09137533 78.99705551 51.35818875 82.02977563 52.625 85.0625 C53.05167969 86.08150391 53.47835937 87.10050781 53.91796875 88.15039062 C55.28709465 91.43016237 56.64578616 94.7140434 58 98 C58.48380127 99.16982422 58.96760254 100.33964844 59.46606445 101.54492188 C63.3342028 111.0366365 66.72000094 120.64521218 69.9375 130.375 C70.19701447 131.15558777 70.45652893 131.93617554 70.72390747 132.74041748 C74.9666284 145.52275513 78.8288704 158.37198282 82.29589844 171.38818359 C82.9471785 173.80406227 83.62546863 176.20962451 84.3203125 178.61328125 C90.04154332 198.45117199 94.45236076 218.6658799 98 239 C98.16209961 239.92474121 98.32419922 240.84948242 98.49121094 241.80224609 C100.5822268 253.89386123 102.34573817 266.0272154 103.86865234 278.20275879 C104.11015672 280.13145871 104.35761817 282.05941002 104.60546875 283.98730469 C107.77859188 310.20556785 108.32637044 336.33105266 108.26074219 362.703125 C108.24931491 367.33382676 108.25615211 371.9642995 108.26761627 376.59499359 C108.33608509 409.10942429 108.33608509 409.10942429 107.109375 424.984375 C107.03189026 425.99993469 106.95440552 427.01549438 106.87457275 428.06182861 C106.26476648 434.73523352 106.26476648 434.73523352 104 437 C103.55011719 436.29617188 103.10023438 435.59234375 102.63671875 434.8671875 C89.32891561 414.43877626 72.75190143 395.66951796 54.15625 379.87109375 C51.20891428 377.3135325 48.35916967 374.65531958 45.5 372 C42.015793 368.76844375 38.52957156 365.5496288 34.9375 362.4375 C25.94347308 354.63636507 17.35284791 346.48313497 9 338 C6.73891189 335.72510372 4.48197218 333.45451807 2.1484375 331.25390625 C-22.15671808 308.07299795 -37.78450135 276.16756135 -46 244 C-46.21462891 243.16049805 -46.42925781 242.32099609 -46.65039062 241.45605469 C-53.08227777 214.71778097 -53.30080093 181.56402529 -46 155 C-45.78569336 154.16645996 -45.57138672 153.33291992 -45.35058594 152.47412109 C-42.13519351 140.07356472 -37.57805056 128.51416812 -32 117 C-31.61295898 116.20094238 -31.22591797 115.40188477 -30.82714844 114.57861328 C-26.32933493 105.35609898 -21.6232914 96.24996602 -16.8125 87.1875 C-8.35304924 71.22766411 -1.45996204 55.85075957 2 38 C2.18691406 37.24589844 2.37382813 36.49179687 2.56640625 35.71484375 C4.43069932 24.0420178 3.88732937 11.17607195 0 0 Z " fill="#74BC2C" transform="translate(539,281)"/>
<path d="M0 0 C0.99 0.495 0.99 0.495 2 1 C1.70456299 1.48017578 1.40912598 1.96035156 1.10473633 2.45507812 C-7.43061849 16.37885664 -15.35061323 30.57279294 -23 45 C-23.52658203 45.99 -24.05316406 46.98 -24.59570312 48 C-30.69975478 59.49709853 -36.57805012 71.06510779 -42.0625 82.87109375 C-43.68427505 86.35978154 -45.38418747 89.80306063 -47.12524414 93.23364258 C-48.54543527 96.10137431 -49.77707507 99.04459809 -51 102 C-58.27868852 119.55737705 -58.27868852 119.55737705 -61 125 C-60.071875 124.484375 -59.14375 123.96875 -58.1875 123.4375 C-55 122 -55 122 -52 123 C-53.78524649 124.19713017 -55.5784028 125.38247279 -57.375 126.5625 C-58.37273438 127.22378906 -59.37046875 127.88507813 -60.3984375 128.56640625 C-61.25695312 129.03949219 -62.11546875 129.51257813 -63 130 C-63.66 129.67 -64.32 129.34 -65 129 C-55.72814934 106.66025494 -46.00906536 84.54791714 -35.00830078 62.99755859 C-33.90185221 60.80555806 -32.82248996 58.60143907 -31.74609375 56.39453125 C-8.10400972 8.10400972 -8.10400972 8.10400972 0 0 Z " fill="#75BD2B" transform="translate(738,869)"/>
<path d="M0 0 C1.06476563 0.25394531 2.12953125 0.50789062 3.2265625 0.76953125 C13.3593745 3.17601543 23.49948302 5.54932694 33.7265625 7.52734375 C36.57590542 8.11973291 39.23755669 9.07918556 42 10 C44.67010681 10.72486028 47.34449225 11.42962558 50.0234375 12.12109375 C52.98161322 12.99457083 55.83965693 14.04480894 58.71972656 15.14575195 C62.19671986 16.4483215 65.70908067 17.64470923 69.21972656 18.85302734 C73.26417479 20.24576017 77.30205131 21.6570236 81.33935547 23.0703125 C83.46510333 23.81309538 85.59345365 24.54842896 87.72265625 25.28125 C97.62562743 28.85909765 106.77581705 33.96982562 116 39 C116 39.66 116 40.32 116 41 C112.66329351 39.70524697 109.45332429 38.2824676 106.25390625 36.6796875 C85.9947281 26.66334849 65.60369289 19.65224007 43.81201172 13.77294922 C39.93692187 12.70778735 36.09480743 11.5437064 32.25 10.375 C23.26841782 7.66973098 14.14059052 5.57843357 4.99853516 3.49316406 C3.31024729 3.07655748 1.64969369 2.5498979 0 2 C0 1.34 0 0.68 0 0 Z " fill="#7AC32C" transform="translate(484,948)"/>
<path d="M0 0 C3.77665355 4.76777386 6.23857353 10.13766969 8.9375 15.5625 C9.79541138 17.28460693 9.79541138 17.28460693 10.6706543 19.04150391 C20.03421903 37.95589496 28.37236559 57.32519007 36 77 C33.08482708 75.92598892 31.22189824 75.22189824 29 73 C29.99 73 30.98 73 32 73 C25.08185933 56.6934678 17.94168406 40.51678589 10.375 24.5 C10.02816162 23.76557678 9.68132324 23.03115356 9.32397461 22.2744751 C5.42446024 13.95530383 5.42446024 13.95530383 1.29150391 5.75195312 C0 3 0 3 0 0 Z " fill="#79C030" transform="translate(571,916)"/>
<path d="M0 0 C-3.0131816 2.00878773 -4.95581877 2.62172685 -8.43359375 3.4453125 C-9.54436279 3.71375977 -10.65513184 3.98220703 -11.79956055 4.25878906 C-13.00008057 4.54463867 -14.20060059 4.83048828 -15.4375 5.125 C-25.75048417 7.63921425 -35.9830444 10.32196077 -46.1875 13.25 C-47.33726318 13.57887207 -48.48702637 13.90774414 -49.67163086 14.24658203 C-55.21968527 15.85045403 -60.69147739 17.51859496 -66.09106445 19.57324219 C-68.36915088 20.08252663 -69.80483472 19.72020741 -72 19 C-67.37522493 16.92357038 -62.89866248 15.35135517 -58 14 C-56.68583498 13.5464628 -55.37346879 13.08769487 -54.0625 12.625 C-49.48462452 11.08634634 -44.84463805 9.91063264 -40.15307617 8.77099609 C-35.47720329 7.63126877 -30.82198897 6.42855184 -26.171875 5.1875 C-24.97030762 4.8687793 -23.76874023 4.55005859 -22.53076172 4.22167969 C-20.12463125 3.58214454 -17.71995566 2.93710614 -15.31689453 2.28613281 C-14.19911621 1.99061523 -13.08133789 1.69509766 -11.9296875 1.390625 C-10.93179199 1.12282227 -9.93389648 0.85501953 -8.90576172 0.57910156 C-5.86497256 -0.02691019 -3.09238567 -0.10221813 0 0 Z " fill="#76C029" transform="translate(795,955)"/>
<path d="M0 0 C0.66 0.33 1.32 0.66 2 1 C-11.66666667 14.66666667 -25.33333333 28.33333333 -39 42 C-38.11598763 37.32186461 -35.27177334 34.70628893 -32.0625 31.375 C-31.14597656 30.40941162 -31.14597656 30.40941162 -30.2109375 29.42431641 C-25.04036026 24.00991704 -19.7798917 18.68259769 -14.5 13.375 C-13.74726807 12.61751465 -12.99453613 11.8600293 -12.21899414 11.07958984 C-8.29477745 7.16719704 -4.32632012 3.46379427 0 0 Z " fill="#48852F" transform="translate(789,672)"/>
<path d="M0 0 C0.66 0.33 1.32 0.66 2 1 C-11.53 14.53 -25.06 28.06 -39 42 C-39.66 41.67 -40.32 41.34 -41 41 C-40.25556641 40.27296875 -40.25556641 40.27296875 -39.49609375 39.53125 C-38.81675781 38.8609375 -38.13742187 38.190625 -37.4375 37.5 C-36.44556641 36.52546875 -36.44556641 36.52546875 -35.43359375 35.53125 C-33.45438992 33.47262387 -31.58293034 31.38303208 -29.71875 29.22265625 C-26.0046293 24.94820489 -22.07697152 20.92874411 -18.0625 16.9375 C-17.39798828 16.26912109 -16.73347656 15.60074219 -16.04882812 14.91210938 C-12.0529268 10.92395956 -7.94623615 7.12432752 -3.66186523 3.44750977 C-2.39770934 2.34641085 -1.1854343 1.1854343 0 0 Z " fill="#4C8637" transform="translate(888,684)"/>
<path d="M0 0 C1.83027001 3.22085281 2.51743365 6.1426073 3.10546875 9.7890625 C3.37327148 11.44808594 3.37327148 11.44808594 3.64648438 13.140625 C3.91428711 14.86539063 3.91428711 14.86539063 4.1875 16.625 C4.47270508 18.36136719 4.47270508 18.36136719 4.76367188 20.1328125 C6.12706924 28.74586152 6.12706924 28.74586152 5 31 C2.69 28.03 0.38 25.06 -2 22 C-1.01 22 -0.02 22 1 22 C2.13363662 18.59909015 1.80581731 17.25702268 1.0625 13.8125 C0.12466945 9.0792881 -0.18163107 4.81322332 0 0 Z " fill="#6DB131" transform="translate(605,861)"/>
<path d="M0 0 C1.15177734 0.00451172 2.30355469 0.00902344 3.49023438 0.01367188 C6.30604518 0.02535574 9.12174398 0.04173719 11.9375 0.0625 C11.9375 0.7225 11.9375 1.3825 11.9375 2.0625 C9.4375 3.6875 9.4375 3.6875 6.9375 5.0625 C6.9375 4.0725 6.9375 3.0825 6.9375 2.0625 C-2.6325 2.0625 -12.2025 2.0625 -22.0625 2.0625 C-22.0625 1.7325 -22.0625 1.4025 -22.0625 1.0625 C-14.67593587 0.06770292 -7.44694355 -0.05586282 0 0 Z " fill="#588E45" transform="translate(1015.0625,588.9375)"/>
<path d="M0 0 C0.66 0.33 1.32 0.66 2 1 C-2.29 4.63 -6.58 8.26 -11 12 C-11 9 -11 9 -8.875 6.5625 C-6.01773563 4.01580785 -3.23139025 2.02901248 0 0 Z " fill="#ECF2EA" transform="translate(929,646)"/>
<path d="M0 0 C0 4.09214774 -1.60222874 5.19193703 -4.3125 8.1875 C-5.11300781 9.08855469 -5.91351562 9.98960937 -6.73828125 10.91796875 C-9 13 -9 13 -12 13 C-8.04 8.71 -4.08 4.42 0 0 Z " fill="#4E8C2F" transform="translate(840,733)"/>
<path d="M0 0 C2.76418436 2.48025001 4.48248403 5.21859362 6.3125 8.4375 C6.86550781 9.38496094 7.41851563 10.33242188 7.98828125 11.30859375 C9 14 9 14 8.16796875 16.34765625 C7.78253906 16.89292969 7.39710938 17.43820312 7 18 C5.82887054 15.37690901 4.66294036 12.75171858 3.5 10.125 C3.16613281 9.37863281 2.83226562 8.63226563 2.48828125 7.86328125 C2.17246094 7.14785156 1.85664062 6.43242187 1.53125 5.6953125 C1.23798828 5.03547363 0.94472656 4.37563477 0.64257812 3.69580078 C0 2 0 2 0 0 Z " fill="#E6F4D5" transform="translate(586,354)"/>
<path d="M0 0 C-2.97 3.96 -2.97 3.96 -6 8 C-7.43088528 5.13822943 -6.59991697 3.06624227 -6 0 C-2.25 -1.125 -2.25 -1.125 0 0 Z " fill="#6EB32E" transform="translate(676,890)"/>
<path d="M0 0 C1.32 0.99 2.64 1.98 4 3 C4.66 2.67 5.32 2.34 6 2 C6 4.64 6 7.28 6 10 C3.38275905 7.63202009 1.67138271 5.10399646 0 2 C0 1.34 0 0.68 0 0 Z " fill="#60A726" transform="translate(638,708)"/>
<path d="M0 0 C0.99 0 1.98 0 3 0 C2.4140625 6.15234375 2.4140625 6.15234375 2 8 C1.01 8.495 1.01 8.495 0 9 C0 6.03 0 3.06 0 0 Z " fill="#6DB132" transform="translate(685,637)"/>
<path d="M0 0 C1.98 0.66 3.96 1.32 6 2 C5.01 3.98 4.02 5.96 3 8 C2.67 8 2.34 8 2 8 C1.34 5.36 0.68 2.72 0 0 Z " fill="#7DC62E" transform="translate(539,281)"/>
</svg>
